<svg version="1" xmlns="http://www.w3.org/2000/svg" width="1544" height="1544" viewBox="0 0 1158.000000 1158.000000"><path d="M373.8 13.1c-5.1 7.2-11.1 15.7-13.3 18.8-2.2 3.1-9.8 13.9-17 24-7.1 10.1-14.2 20-15.6 22-3.2 4.5-29.1 41.1-33.4 47.1-8.8 12.4-25.2 35.4-30.2 42.5-8.1 11.5-42.3 59.7-58.6 82.5l-13.9 19.5 5.1.3c2.8.2 5.1.8 5.1 1.4 0 .6-3.4 5.8-7.6 11.7-4.2 5.8-11.4 16-16.1 22.6l-8.5 12 4.2.5 4.1.5-13.8 19c-7.6 10.5-15 20.6-16.4 22.5-1.4 1.9-11.7 16.1-22.9 31.5-20.3 28-27.6 38.1-38.1 52.4-3 4.2-5.9 8.2-6.4 9-.7 1.2.7 1.3 8.1.8 4.9-.4 19.5-1.4 32.4-2.2 35.4-2.4 53.3-4.2 77-8.1 34-5.6 66.1-12.2 103.7-21.4 11.1-2.8 20.8-5 21.5-5 .7 0 6.5 7.3 12.8 16.2 6.3 8.8 14.2 19.8 17.5 24.4 3.3 4.5 7.9 10.8 10.2 14.1 2.3 3.2 19.6 27.2 38.5 53.4 18.9 26.1 35 48.5 35.8 49.8 1.5 2.2 1.6 2.2 12.7 1 6.1-.6 11.6-1 12.3-.7.7.2-.1 2-2 4.7-10.1 13.9-26.1 42.9-32.9 59.6-9.2 22.8-12.9 39-13.7 60.5-1 25 2.9 42.5 13.6 61.9 2.2 4.1 4 7.5 4 7.7 0 .1-2.1.6-4.7 1-2.7.3-12.6 1.9-22.2 3.5s-21 2.9-25.2 2.9c-23.9 0-50.9 12.3-66.1 30.2-19.3 22.7-25.7 50.5-19.3 83.9.6 3.1.4 3.7-1.4 4.2-2.5.6-2.5 1-1.1 30.2 1.1 22 2.7 32.9 6.6 43.2 9.4 25.2 26.6 41.5 51.1 48.5 12.4 3.5 30.8 3.2 52.8-1 9.4-1.8 24.4-4.6 33.5-6.2 9.1-1.6 20.1-3.6 24.5-4.4 4.4-.8 9.6-1.6 11.5-1.8l3.5-.3.3 20.2.2 20.2 2.8-.4c1.5-.3 5.4-.9 8.6-1.5 3.3-.5 6.8-1 7.8-1 1.7 0 1.8 2.6 1.8 57.9 0 31.9.3 58.2.8 58.4.4.2 4.1-.2 8.2-.9s16.7-2.7 28-4.4c29-4.3 50.7-7.7 64-10 15.4-2.7 45.3-7.5 62.5-10 7.7-1.1 16.3-2.5 19-3 11.1-2.2 45.2-7 49.4-7 13.6 0 38-7.7 50-15.6l5.4-3.6 5.6 1.6c16 4.4 34.8 4.1 55.6-.9 5.5-1.3 17.9-3.6 27.5-5 9.6-1.4 20-3 23-3.5 3-.6 14.1-2.3 24.5-3.9 10.5-1.6 29.4-4.6 42-6.6 25.7-4.1 57.3-9 86.5-13.5 22.3-3.4 28.9-4.6 29.6-5.2.6-.7-1.4-238.9-2-239.6-.3-.2-6 .5-12.8 1.7-6.8 1.1-19.7 3.2-28.8 4.6-9.1 1.4-25 3.8-35.5 5.5-10.4 1.6-20.2 2.9-21.6 3h-2.7l-.3-77.9c-.2-42.9-.6-78.2-.9-78.5-.3-.3-6.9.5-14.5 1.8-22.1 3.8-23.5 3.9-23.9 2.4-.3-.7-1.7-22.5-3.1-48.3-2.5-44.6-2.8-47.6-5.7-58.5-15.2-57.9-50-101.5-101.8-127.5-20.2-10.1-47.7-19.3-69-23.1-8.8-1.5-9.8-1.9-13.8-5.8-4.4-4.1-9.7-13.4-14.6-25.6-1.4-3.5-2.6-6.5-2.6-6.6 0-.1 2.5-.8 5.6-1.4 34.4-7.2 62.4-32.3 74.9-67.3 4.4-12.3 5.9-22.3 5.8-39.7-.2-24.2-5.3-41.2-19.1-62.5l-4.5-7 2.8-2c7.4-5.2 40.2-31.9 50.5-40.9 34.2-30 57.4-53.2 95.9-95.9 27.8-30.8 31.3-34.9 30.9-35.2-.2-.3-40.9-1-90.4-1.6-49.4-.6-90.1-1.3-90.3-1.5-.3-.2 1-1.9 2.8-3.8l3.2-3.3-30.2-.6c-16.6-.4-38.9-.7-49.4-.7s-19.5-.3-19.8-.7c-.4-.3 1.4-3 3.9-6 2.6-3 4.5-5.5 4.3-5.7-.6-.5-34.7-2.5-78.4-4.6-22.5-1.1-48.6-2.5-58-3-19.5-1.2-59.3-3.3-104-5.5-28.4-1.4-50.6-2.6-70.7-4l-7.7-.5-9.3 13.1zm339.9 211c11.9 4.4 26.2 16.1 33.8 27.7 3.8 5.7 4.3 4.7.9-2-3.6-7.1-7.3-12.4-12.3-17.6-2.4-2.4-3.3-3.8-2.1-3.2 3.6 1.9 10.1 8.2 14 13.6 19.7 26.6 20 63.3.6 84.1-7.4 7.9-14.6 12.1-24.4 14-7.5 1.5-8.4 1.5-13.3-.2-7.3-2.3-14.9-7.6-23.1-15.8-3.7-3.8-6.8-6.6-6.8-6.3 0 1.3 3.3 7.1 6.6 11.8 1.9 2.7 3 4.8 2.5 4.8-1.9 0-9.3-6.3-13-11.3-4.1-5.4-13.2-23.6-14.6-29.2-1.3-5.3-1.7-.7-.6 7.5.6 4.3 2.2 10.7 3.7 14.2 3.8 9.3 3.9 9.6 1 6.3-2.6-2.9-2.7-2.9-2-.5.9 3.5 3.8 8.9 6.8 12.9 1.4 1.9 2.4 3.7 2.1 4-.6 1.1-14.7 7.8-19.8 9.5-5.7 1.9-20.6 4.6-25.3 4.6H625v-11.9l5.5-3.8c14.7-10.2 22-15.6 22-16.3 0-.5-7.6-6.3-16.8-12.9L618.9 296l-8.3 5.6c-5 3.3-8.9 5.2-9.8 4.9-2.1-.8-2.8-4.9-2.8-15.6V282l3.8-1.8c6.7-3.1 42.9-22.1 51.8-27.2 4.8-2.7 9-4.7 9.4-4.5.4.2.1 2.8-.6 5.7-.8 2.9-1.4 7.3-1.3 9.8v4.5l1.3-4.5c4.4-15.7 5.9-19 10.1-21.6 13-8 34.1-20.4 34.7-20.4.4 0 3.3 1 6.5 2.1zm-131.1 75.7c-1.2 1.2-1.8-.8-1-3.5l.8-2.8.4 2.8c.2 1.6.1 3.1-.2 3.5zm-28.6 5.8c0 .8-.4 1.2-1 .9-.5-.3-1-1-1-1.6 0-.5.5-.9 1-.9.6 0 1 .7 1 1.6zm76.3 7.6c5.3 3.8 9.7 7.3 9.7 7.8 0 .4-5.6 4.5-12.4 9l-12.4 8.3-.4 9.6c-.3 8.3-.8 10.3-3.3 15.1-7.7 14.1-22.3 21.3-38.1 18.8-28.2-4.4-39.9-40.4-19.7-60.6 11.4-11.3 29.1-14.2 41.9-6.7 5 2.9 4.5 3.1 15.4-4.4 4-2.8 7.8-4.8 8.4-4.4.6.4 5.5 3.7 10.9 7.5zm-83.4-2.8c.9 1.1.1 2.8-3.9 8.1-2.7 3.6-5 7-5 7.6 0 .5-.6.9-1.3.9-1.3 0-15.1-9-14.5-9.5 1.2-1.1 19.7-8.5 21.4-8.5 1.2 0 2.7.6 3.3 1.4zm-32.1 20.9c5.4 3.5 11.6 7.4 13.9 8.7 4 2.2 4.2 2.5 4.8 8.4 1 8.6 3.9 17.4 7.6 22.9l3.1 4.7-3 4.8c-1.6 2.6-8.2 14-14.6 25.4-6.5 11.3-12.3 21.1-12.9 21.6-.7.5-4 2.4-7.4 4.2l-6.2 3.2-13.8-7.8c-7.6-4.2-19.6-11.1-26.8-15.3-7.1-4.1-14.8-8.5-17-9.7-2.2-1.2-8.9-3.2-14.8-4.4-9.6-2-12.1-2.2-21.3-1.4-5.7.5-10.4.7-10.4.5 0-.2 1.1-3.5 2.5-7.3 1.8-5 2.5-8.9 2.5-14.4 0-4.2.4-7.4 1-7.4 1.4 0 25.8-9.2 35.5-13.3 13.6-5.9 17.6-7.7 31-14.3 18-8.8 32.6-15.2 34.8-15.3 1.1-.1 6.2 2.7 11.5 6.2zm149.9 34.3c4 14.3 13 39.6 23.3 65.5 8.1 20.4 15.6 30.3 29.9 40l4.6 3.1-4.8-.5c-15.1-1.5-52.9 12.1-76.4 27.6-16.2 10.7-34.6 29.3-44.7 45.1-4.9 7.6-11.6 21.2-15.2 30.4l-2.9 7.4-4.6-.6c-6.1-.8-13.6-3.4-22.9-8-12.6-6.2-12.2-5.1-5.3-15.3 15.1-22.1 33.5-52.9 48.8-81.6 5.8-11 7-18.2 3.5-21.7s-10.8-2.4-22.6 3.4c-7.5 3.8-11.3 6.5-17.1 12.2-11.6 11.3-10.7 11.2-10 1.9.5-7.8.7-8.4 9.9-25 5.2-9.4 14.5-26.3 20.8-37.6l11.3-20.7 7.4-3.2c7.8-3.5 17.7-11.9 20.8-17.9 1.4-2.7 2.1-3.1 5.8-3.1 7.8 0 21.8-2.2 29.6-4.5 4.2-1.3 8-2.3 8.5-2.1.5.1 1.5 2.4 2.3 5.2zM554 387.9c0 .5-.6 1.6-1.3 2.3-.6.7-2.5 4-4.1 7.3-1.6 3.3-3.2 6.2-3.5 6.5-.3.3-1.9 3.2-3.6 6.5-1.6 3.3-3.2 6.2-3.5 6.5-.4.3-1.7 2.7-3.1 5.5-1.3 2.7-2.7 5.2-3 5.5-1 .9-5.9 11.1-5.9 12.3.1 1.9 9 6.8 11.1 6.2 1-.3 3-3.2 4.5-6.3 1.5-3.1 3-5.9 3.4-6.2.4-.3 1.9-3.2 3.5-6.5 1.5-3.3 3.1-6.2 3.5-6.5.4-.3 1.9-3.2 3.5-6.5 1.5-3.3 3.1-6.2 3.5-6.5.3-.3 1.7-2.8 3-5.5 1.3-2.8 3-5.6 3.7-6.3.7-.7 1.3-2 1.3-2.8 0-.8.5-1.4 1.1-1.4.6 0 .9.3.7.7-.2.5-1 2.1-1.8 3.8-.8 1.6-1.8 3.2-2.2 3.5-.4.3-1.4 2.2-2.2 4.2-.9 2-2.2 4.2-2.9 5-.8.7-2.6 4.1-4.2 7.6-1.5 3.4-3.1 6.2-3.5 6.2-.3 0-1.7 2.5-2.9 5.5-1.3 3.1-2.9 6.1-3.5 6.8-1.4 1.4-6.6 12-6.6 13.3 0 .5 1.1 3.6 2.5 6.9 3.1 7.6 3.1 12.1.1 19.8-2 5.1-2.5 8.6-2.9 19.3l-.5 13.1-3.7 5.6c-4.2 6.3-1.4 5.2-27.5 10.5l-9.4 1.9-5.1-3.3-5-3.3-10 1.4c-5.5.8-10.8 1.5-11.7 1.5-1 0-7.4-8-16.9-21.3-32.9-45.8-37.3-51.8-51.3-69.7-7.9-10.2-14.3-18.6-14.1-18.8.1-.1 7.5-1.1 16.4-2.2 14.7-1.7 16.8-1.8 21.9-.5 3.1.8 6.3 1.5 7.2 1.5.9 0 3.1.8 5 1.8 5.1 2.7 38.4 21.8 52 29.8 3.6 2.2 8.6 5 11.1 6.3l4.6 2.4 3.2-2.4c4.3-3.2 15.6-3.9 23.1-1.4 7.5 2.5 7.2 1.2-.6-2.6-4.1-2.1-6.1-3.5-5.1-3.7.9-.2 1.7-1 1.7-1.8s.4-1.4.8-1.4c.5 0 2.2-2.8 3.8-6.3 1.6-3.4 3.2-6.4 3.5-6.7.4-.3 1.7-2.5 2.9-5s2.5-4.7 2.9-5c.3-.3 1.9-3.2 3.5-6.5s3.2-6.2 3.5-6.5c.3-.3 1.9-3.2 3.5-6.5 3.5-7 5.6-9.9 5.6-7.6zm155.5 177.7c1.9 1.8 2.6 3.2 2.2 5-.2 1.3 0 2.4.6 2.4s2.1 1 3.4 2.2c2.6 2.4 3 6.5.9 9.4-1.2 1.5-1.8 1.7-3.3.8-1-.6-1.9-2.2-2.1-3.5-.9-7.6-1.1-7.7-4.7-2-1.9 3-4.4 6.5-5.7 7.8-1.9 2-2 2.5-.8 3.3 4.1 2.6 7 .6 7-4.6 0-2.2.2-2.3 2-1.4 3.1 1.7 6.7 9.6 5.4 11.8-1.7 2.6-10.3 2.8-16 .3-5.7-2.6-5.9-2.6-9.4-.1-3.1 2.2-11 3.8-11 2.2 0-.6.4-1.2.9-1.4.5-.2 3-2.2 5.5-4.6l4.6-4.3-1.6-3.7c-.9-2-2-5.7-2.4-8.2-.4-2.5-1.1-5.3-1.5-6.3-.6-1.4-.2-1.7 2.4-1.7 3.4 0 4.6 1.5 5.6 7.5 1.3 7.9 1.5 8.1 3.5 5.5 1.6-2.1 1.6-2.7.4-4.4-.8-1.1-1.4-3-1.4-4.3 0-1.2-.4-2.5-1-2.8-1.5-.9-1.2-2.5.5-3.1.8-.4 3.1.6 4.9 2 1.9 1.4 3.7 2.6 4 2.6.3 0 1.1-2 1.7-4.5.6-2.5 1.5-4.5 1.9-4.5.4 0 1.9 1.1 3.5 2.6zm44.7-.3c.7.8 2 1.2 3 .9 1.2-.3 2.1.5 3 2.3 1 2.3 1 2.9-.4 3.9-2.1 1.6-1.8 5.9.7 8.6 1.4 1.5 1.6 2.3.7 3.2-.8.8-.4 2 1.9 4.5 3.5 4 3 5.6-1.4 4.8-3-.5-3.4-.2-5.3 3.7-2.3 4.9-5.6 6.1-7.5 3-1-1.6-1.6-1.7-4-.9-3.8 1.5-4.4.5-2-3.4 2.5-4 2.7-5.9.6-5.9-1.7 0-2 .7-2.9 6.2-.9 5.1-3.4 5.8-6.8 1.7-2.9-3.4-2.8-4.9.1-4.9 1.4 0 2-.9 2.3-3.5.6-5-2.1-4.6-4.7.7-2 4.1-6.8 7.9-8.2 6.5-.4-.4.5-3.1 1.9-6 2.5-5.1 4.4-12.5 5.2-19.7.3-3.3.6-3.5 4.2-3.8 2.1-.2 4.4-.8 5.1-1.3.8-.7 1.8-.4 3.2 1 1.7 1.7 2 1.7 2.5.4.6-1.4.9-1.4 2.6.2 1.9 1.8 2 1.7 2-.8 0-3 2.1-3.6 4.2-1.4zM544 584.8c5.2 2.1 14.6 5.2 20.8 6.7 10.5 2.6 11.3 2.9 10.8 4.9-1.5 5.5-3.6 20.4-4.6 32.6-3.1 38.2-10.9 94.5-15.7 113.5-2.1 8.1.5 7-26.3 11-9.6 1.4-18.5 2.9-19.6 3.1-1.6.4-3.7-.9-8.3-5.1-12.2-11.4-21-24.6-26.1-39.3-1.8-5.1-3.4-9.1-3.5-9-.1.2.2 4.5.6 9.6.9 10.9 4.4 22.5 10.1 33.2 3.8 7.3 3.8 7.4.9 4-5.2-6-12.3-17.9-15-25.4-2.4-6.6-2.6-8.3-2.6-23.6 0-14.9.3-17.5 2.9-27 8-30.1 26.6-63.8 51.8-94.2l4.9-5.9 4.7 3.4c2.6 1.9 9 5.3 14.2 7.5zm139.9-4.7c1.7 4.8 1.3 7.5-1.2 10.5-5 5.7-8.5-1.2-4.7-9.1 2.6-5.3 4.4-5.7 5.9-1.4zm240.8 280.8l-.2 20.5-10 1.7c-5.5 1-11.5 1.8-13.2 1.8l-3.3.1v-60l-3.2.1c-1.8 0-6.9.6-11.3 1.2l-8 1.2v30.3c-.1 25.7-.3 30.5-1.5 31.2-1.3.6-21.1 4-23.8 4-.9 0-2.9-136.6-2-137.5.3-.4 24.6-4.5 26.3-4.5.3 0 .5 12.6.5 28 0 26 .1 28 1.8 28 1.6 0 10-1.2 18.1-2.6l3.4-.5-.5-28.1c-.3-19.3-.1-28.1.6-28.4.6-.2 6.5-1.2 13.1-2.2l12-1.8.7 48.6c.4 26.7.7 57.7.5 68.9zm-105.2-98c8 3.6 13.6 13.3 15 25.7l.7 5.9-11.1 3.7c-6.1 2-11.3 3.3-11.5 3-.2-.4-.7-3.2-1.1-6.2-1.6-11.8-5.3-15.2-12.4-11.4-5 2.7-6.2 5.6-5.9 13.6.4 8.5 2.5 11.2 17.6 22.9 13.7 10.6 18.4 15.6 22.3 23.4 4.9 10 5.6 25.9 1.5 35.5-2 4.7-7.4 12.2-11.1 15.2-9.4 7.8-25.1 10.9-37.2 7.3-9.7-2.9-16.6-13.9-17.9-28.6-.6-5.5-.4-7.3.7-8 2.8-1.8 19.9-7 20.9-6.4.5.3 1 2.3 1 4.4 0 5.1 2.7 13.8 5.1 16.2 2.1 2.1 8.7 2.6 11.9.9 4-2.1 5.2-12.2 2.4-20.3-1.8-5.3-8-11.4-24.4-23.9-14.8-11.4-18.5-18.4-18.3-34.8.1-14.3 4.5-23.9 14.2-31.4 10.1-7.6 28.4-10.9 37.6-6.7zm-67.7 63.8c-.3 54.7-.4 55.9-2.6 62.5-6.1 18.2-18 26.3-40.3 27.5-16.9.9-24.5-3.7-29.1-17.7-2-6.1-2.1-9.7-3-60.9-.5-29.9-.6-54.7-.1-55.1 1-1 24.1-4.5 24.8-3.8.4.3.8 23.5 1.1 51.4.3 28 1 53.3 1.5 56.1 1.3 6.9 4.6 9.7 10.4 9 4.8-.7 8.9-4.7 10.4-10.4.7-2.4 1.1-22.7 1.1-57V775l2.3-.5c2.7-.6 19.5-3.2 22-3.4 1.7-.1 1.8 2.5 1.5 55.6zm-110.1-34.9c5.6 2.9 9.9 8.5 12.6 16.2 2 6.2 2.2 8.5 2.5 44.4.3 41.2-.1 46.3-5.3 57.3-2.8 6.1-9.6 13.3-15.4 16.2-2.2 1.2-8 3.1-12.8 4.2-24.9 6-38.9-3.1-42.2-27.4-1.4-10-1.4-68.2-.1-76.6 3-18.2 12.7-30 28.5-34.5 7.9-2.3 9.4-2.5 19-2.2 6.9.2 9.9.7 13.2 2.4zm-101.4 31.9c.4 10.8.7 37.3.7 59 0 27.4.3 39.3 1.1 39.3.6 0 7.2-.9 14.6-2.1 8.2-1.2 13.9-1.7 14.5-1.1.5.5.8 4.6.6 9.2l-.3 8.4-3 .7c-1.6.5-13.6 2.4-26.5 4.4-12.9 2-24.2 3.8-25.1 4.1-1.5.4-1.8-1.1-2.4-12.8-.3-7.3-.5-38.5-.3-69.3l.3-56 10-1.6c5.5-.9 11.2-1.7 12.6-1.8l2.6-.1.6 19.7zm-48.9-5.8c7.3 4.1 11.2 11.5 12.6 23.8 1.9 17-1.8 31.4-10.2 40-5.1 5.2-15.7 10.1-24.5 11.4-3.8.6-8.8 1.3-11.3 1.7l-4.5.7v59.9l-7.5 1.4c-4.1.7-9.3 1.4-11.5 1.5l-4 .2-.3-68.6-.2-68.7 8.7-1.2c4.9-.7 14.9-2.3 22.3-3.6 16.6-2.9 23.3-2.6 30.4 1.5zm-99.1 10.2c7.7 2.1 14.2 10.6 16.6 21.7 1 4.8 1.5 11.2.9 11.2-.2 0-5 1.6-10.7 3.5-5.7 1.9-10.7 3.5-11.1 3.5-.4 0-1-2.9-1.3-6.3-.7-8-2.2-11.3-5.7-12.7-2.3-1-3.5-.9-6.5.6-4.4 2.1-6.5 6.2-6.5 12.9 0 9 2.6 12.2 21.7 26.7 16.9 12.9 22.6 22.9 22.6 39.8 0 11.2-2.2 18.2-8.3 25.8-7.6 9.7-17.6 14.2-31.7 14.2-9.6 0-14.1-1.5-19.2-6.3-5.5-5.2-10.1-17.8-10.1-27.6v-3.8l10.8-3.7c5.9-2 11-3.6 11.3-3.6.3 0 .9 2.9 1.2 6.4 1.2 12.3 5.8 18.6 12.6 17.1 4.9-1.1 7.4-4.8 7.9-11.5.8-11.6-2.9-16.7-23.4-32.2-11.3-8.5-14.1-11.5-17.5-18.5-2.1-4.3-2.4-6.2-2.4-17.3 0-11.4.2-13 2.7-18.2 6.4-13.8 20.4-22.4 36.8-22.7 3 0 7.2.4 9.3 1zm634.5 66.4c.2 4.8-.1 9.2-.5 9.6-.6.6-25.9 4.9-28.9 4.9-.2 0-.4 8.3-.4 18.3v18.4l10.8-1.8c5.9-1.1 11-1.9 11.5-1.9.4 0 .7 4.4.7 9.8v9.9l-11.2 1.9-11.3 1.9-.3 21.2-.2 21.3h2.8c1.5 0 7.9-.9 14.1-2.1 6.2-1.1 11.9-1.8 12.7-1.5 1.1.4 1.4 2.7 1.4 9.5v8.9l-2.7.6c-1.6.3-10.2 1.7-19.3 3.1-9.1 1.4-20.5 3.2-25.5 3.9-4.9.8-9.1 1.3-9.1 1.3-.1-.1-.5-31.1-.9-68.9l-.8-68.7 2.4-.5c1.3-.3 11.2-1.9 21.9-3.6 10.7-1.6 22-3.4 25-3.9s6-.8 6.5-.6c.6.1 1.1 4.1 1.3 9zm-82 9.8c9 5.9 12.7 16.6 12 34.7-.6 13.7-2.8 20.4-8.9 27.4-6.7 7.6-17.6 12.5-31.6 14.1l-6.3.7v60.4l-11.3 1.7c-6.2.9-12.2 1.7-13.4 1.7h-2.2l-.3-67.8c-.2-37.2-.1-68.3.1-69 .2-.6 1.5-1.2 3-1.2 1.4-.1 10-1.4 19.1-3 21.9-3.9 33.7-3.8 39.8.3zm-84 63.4l-.3 56.8-2.9 7.2c-3.6 9.1-9.1 15.5-16.9 19.4-10.3 5.2-26.7 7.4-36 4.8-4.4-1.2-9.7-5.6-12.8-10.6-5-8-5.2-11.1-5.6-69l-.4-54.2 4.8-.7c2.6-.3 8.3-1.2 12.6-1.9 5.7-.8 8-.9 8.3-.1.2.6.5 24.9.6 54.1.3 47.4.5 53.4 2 56.8 3.1 6.8 11.2 7.4 16.7 1.1 1.7-1.9 3.2-3.6 3.3-3.7.1-.1.5-25.6.8-56.7l.5-56.5 10.5-1.6c5.8-.9 11.5-1.7 12.8-1.8l2.3-.1-.3 56.7zm-105.3-35.2c4.8 2.8 8.7 8 11.1 14.9 2.4 6.5 3.7 31.9 3.1 60.6-.5 28.4-1.1 32.4-6.2 42.3-7 13.5-21 20.8-40.5 21-12.9.2-19.7-3.4-24.8-13.1-1.7-3.2-3.6-8.7-4.1-12.2-1.7-10.2-1.4-76 .3-84.1 1.9-8.9 5.6-15.9 11.3-21.4 11.9-11.3 37.2-15.4 49.8-8zm-89.4 15.2c9.8 4.4 13.1 10.6 13.7 26.2.7 17.6-2.7 28.4-11.1 35.7l-3.9 3.3 6.2 21.8c3.4 12 7.5 26.4 9 32l2.8 10.1-2.2.5c-7.8 1.9-23.8 3.9-24.5 3.1-.5-.5-3.9-13-7.6-27.8-3.7-14.9-7-27.8-7.3-28.8-.3-1.2-1.4-1.8-3.2-1.8-6.3 0-6-1.7-6 32v30.8l-2.2.5c-7.9 1.8-22 3.8-23.3 3.3-1.3-.5-1.5-8.7-1.5-69v-68.4l6.8-1.1c3.7-.6 12.1-2 18.7-3.1 15.5-2.5 29.2-2.2 35.6.7zM594 963.5c0 5.8-.3 10.5-.7 10.5-1.1 0-13.2 1.9-16.5 2.6l-2.8.6v117.5l-12.6 1.7c-6.9 1-12.8 1.5-13.1 1.2-.4-.4-.9-26.6-1.1-58.2l-.5-57.7-5.6.6c-3.1.4-7.8.9-10.4 1.3l-4.8.7.3-10.4.3-10.3 18-2.8c9.9-1.6 24.8-3.9 33-5.2 8.3-1.3 15.3-2.4 15.8-2.5.4-.1.7 4.6.7 10.4z"/><path d="M573.5 329.3c-5.7 2.3-7.4 3.7-10.1 8.2-10.3 17.7 12 37 27.6 23.8 10.2-8.5 8.8-23.8-2.7-30.5-3.9-2.3-11.1-3.1-14.8-1.5zm11.6 6.2c9.7 5.1 8.7 19.9-1.6 23.3-7.2 2.4-14.5-1.6-16.5-8.9-.9-3.3-.8-4.6.7-7.7 3.5-7.1 11-10 17.4-6.7zM452.5 355.8c-7.5 7.9-13.8 13-24.9 20.2-4.9 3.1-6.4 4.6-5.2 4.8 1.5.3 1.7 1 1.1 4-1.8 9.6-1.6 9.8 1.9 3.1 3.7-7.1 6.6-9.5 6.6-5.6.1 2 .3 1.9 3-1.3 1.6-1.9 3-2.9 3-2.2 0 1.5 10-9 14.9-15.7 3.3-4.6 7.4-12.9 6.9-14-.2-.3-3.4 2.7-7.3 6.7zM468.8 388.6c-3.4 1.8-3.7 3.8-.5 3 1.3-.3 9.2-.9 17.7-1.3l15.5-.7-9.5-1.2c-13-1.7-20-1.6-23.2.2zM477.3 398.2c-1.3.6-2.3 1.5-2.3 2.1 0 .5 1 .7 2.3.3 1.2-.3 8.1-.6 15.2-.6 15.2-.1 14.1-1.4-2-2.3-7.2-.4-11.8-.2-13.2.5zM512.8 461c-.9.6-2.2 2.6-2.8 4.4-1.5 4.5.7 8.9 5 10.4 8.3 2.9 14.7-7.1 8.5-13.3-2.5-2.6-7.5-3.3-10.7-1.5zm8.2 4c2.4 2.4 2.4 2.9.4 5.8-2.6 3.8-8.4 2.3-8.4-2.2 0-2.3 2.7-5.6 4.7-5.6.7 0 2.2.9 3.3 2zM458.3 478.7c-3.9 2-4.1 3.2-.9 6.2l2.5 2.3 3-2.2c3.6-2.5 3.6-2.8 1.5-5.8-1.8-2.6-1.9-2.6-6.1-.5zM463.8 487.2c-3.4 1.2-3.5 2.8-.4 5.7 2.1 2 2.7 2.1 4.8 1.1 4.5-2.4 4.9-3 3.1-5.6-1.6-2.6-3.2-2.8-7.5-1.2zM469.3 495.2c-2.9 1.4-2.9 2.9.2 5.8 2.2 2.1 2.7 2.2 5.5 1 4-1.7 4.4-2.5 2.4-5.5-1.7-2.7-4.4-3.1-8.1-1.3zM736 573.5c0 .8.5 1.5 1 1.5.6 0 1-.7 1-1.5s-.4-1.5-1-1.5c-.5 0-1 .7-1 1.5zM734.8 580.7c.7.3 1.6.2 1.9-.1.4-.3-.2-.6-1.3-.5-1.1 0-1.4.3-.6.6zM750.2 595c-.7 1.1-.8 2-.3 2 .9 0 2.4-3 1.8-3.6-.1-.2-.8.6-1.5 1.6zM613.8 811.5c-6.1 3.4-6.3 4.4-6.6 45-.3 41.4.3 48.7 4.3 52.2 5.2 4.5 13.5 1.9 16.6-5.2 1.9-4.3 2-6.3 1.7-45.9-.3-40.3-.4-41.5-2.4-44.3-1.7-2.2-3-2.8-6.5-3-2.5-.2-5.6.4-7.1 1.2zM459.5 836.9c-2.6.5-3 1.1-2.9 3.9 0 1.7.1 10.2.2 18.8l.2 15.7 5.3-.7c6.5-.9 11.5-3.3 14.1-6.9 1.7-2.3 2.2-4.7 2.5-11.8.6-16.6-1.2-20-10.6-19.8-3.2.1-7.1.4-8.8.8zM912.5 922.9l-3 .6-.3 18c-.1 9.9 0 18.5.2 19.1.6 1.6 12.4-.6 16-2.9 5.2-3.4 6.1-6.2 6.1-18.3 0-9.9-.3-11.6-2.1-14.1-1.9-2.5-2.8-2.8-8-3-3.2 0-7.2.2-8.9.6zM727.3 950.5c-6.8 2.9-6.8 2.5-7.1 47-.2 22 0 41.9.3 44.2.9 6.4 3.4 8.8 8.9 8.7 5.3-.1 8.9-2.2 11.3-6.7 1.7-2.9 1.8-6.5 1.5-44.7-.4-44.9-.7-47.1-5.7-49-3.4-1.3-5.3-1.2-9.2.5zM635 965.9l-3.5.6.3 19.4c.1 10.7.3 19.6.5 19.7.1.2 3.3-.4 7.1-1.2 11.8-2.8 15.6-8.1 15.6-22.3 0-14.9-4.9-18.9-20-16.2z"/></svg>