<svg version="1" xmlns="http://www.w3.org/2000/svg" width="1416" height="1416" viewBox="0 0 1062.000000 1062.000000"><path d="M536.5 7.6c-2.2.2-9.6.9-16.5 1.4-21.1 1.8-57.2 8-71.9 12.2l-4.3 1.3L470.5 47c14.8 13.5 28.2 25.7 29.8 27.1l3.1 2.6-11-.5-10.9-.5-5.5-5c-3-2.7-15.1-13.8-26.8-24.5l-21.3-19.4-13.7 4.5c-7.6 2.6-20.7 7.4-29 10.9l-15.3 6.3 5.3 5c2.9 2.8 8.4 7.9 12.3 11.4l7 6.3-12.9-.7c-7.1-.4-16-1-19.7-1.4l-6.7-.6-22-20.3C321.1 37.1 310.6 28 310 28c-1.4 0-14.3 7.2-28.5 16-49.2 30.4-97.3 75.7-131.8 124.1-2.6 3.7-4.7 7.1-4.7 7.7 0 .5 18.4 17.8 40.9 38.3l40.8 37.4-4 5.7-4.1 5.8-4.6-4.3c-4.6-4.5-71.8-65.7-75.7-69l-2.2-1.9-7.6 12.9c-8.1 13.7-26 49.2-26.9 53.3-.5 2.2 3.3 6 36.3 36 20.4 18.4 36.8 34.1 36.6 34.7-.3.7.4 1.3 1.3 1.3 1 0 3.3 1.5 5 3.3l3.3 3.4-6.8 9.6c-3.7 5.3-7 9.6-7.3 9.6-.3.1-23.9-21.3-52.4-47.4C89 278.4 65.3 257 64.9 257c-.9 0-6.3 16.4-10.8 32.5-6.2 22.3-11.4 50.5-14.2 76.9l-1.1 10.9 2.8 2.7c1.6 1.5 18.5 17 37.7 34.4 19.1 17.5 34.7 32 34.7 32.4 0 .4-1.6 3.1-3.7 6l-3.6 5.3-2.6-2.4c-14.2-13-62.2-56.7-64-58.2l-2.4-2 .6 26.5c.8 35.6 3.5 58.7 11.3 93.4l3.5 15.8-2.7 4.2c-1.5 2.2-5.1 7.4-8.1 11.3-2.9 4-5.3 7.6-5.3 7.9 0 .7 16.9-.4 20.6-1.2 1.9-.5 2.5.7 6.4 11.8 35 100.3 106.8 188.1 198.5 242.6 46.8 27.9 91.8 45.4 144.5 56.2 13.2 2.7 18.5 4.2 18.4 5.2-.1.7-1.3 5.4-2.8 10.4-4.6 16.2-6 26.7-6 43.4.1 17.2 1.5 25.3 6.4 37.7 19.5 48.6 70.8 82.4 144.8 95.3 24.8 4.3 40.1 5.4 77.2 5.4 21 .1 41.4-.4 50-1.2 67.3-6 130-17.5 210.5-38.8 13.8-3.6 25.3-6.9 25.7-7.3.8-.7 57.8-155.4 57.8-156.9 0-1.4-9.8-7.3-18.3-11.1-3.7-1.7-6.7-3.4-6.7-4 0-.5 5.2-15.4 11.5-33.2 6.4-17.8 11.4-32.9 11.3-33.7-.3-1.4-12-8-21.5-12l-5.1-2.2 16.4-41.1c9.1-22.6 16.4-41.3 16.2-41.4-1.5-1.4-31.5-15.5-43.5-20.5l-15.1-6.4 4.4-8.8c2.4-4.8 6.4-13.3 8.9-18.8l4.4-10-77.2-70.6c-42.5-38.9-77.2-71-77.2-71.4 0-.4 2.3-2.6 5.2-4.9 2.9-2.2 6.8-5.7 8.8-7.7l3.7-3.6 3.6 3.4c14.1 13.4 178.4 162.9 178.7 162.6.2-.1 2.4-7.1 5-15.3 6.2-20 11-40.3 14.5-61 2.8-16.7 5.7-41.2 4.9-41.8-1.6-1.3-223.5-204-227.3-207.7l-4.9-4.8 5.6-3.7c5.4-3.6 5.8-3.7 7.9-2.2 1.3.9 51.1 46.4 110.8 101l108.5 99.4.5-5.1c.7-7.5.2-33.1-1-48.6-4.8-59.8-20.9-117.2-48.2-171.2-13.6-27-29.4-52.1-47.7-75.9l-2-2.6 13.1-12.4c12.7-12 49.1-49.9 48.5-50.5-.3-.3-25.2-.8-92.1-1.9l-32.9-.6-7.6-6.3c-23.5-19.5-55.8-40.4-84.9-55C758 50.5 736.8 41 735.7 41c-.8 0 8.4 8.6 47.1 43.9 18.2 16.7 33.2 30.5 33.2 30.7 0 .2-4.4.4-9.8.4h-9.8l-47.8-43.8-47.8-43.7-10.3-3.2C669.2 18.7 632.1 11.6 605 9c-11.5-1.1-60.9-2.1-68.5-1.4zm391.5 210c11.3 10.3 20.6 18.7 20.7 18.8.2.2-1.9 2.6-4.5 5.4l-4.7 5.2-21.4-19.7-21.4-19.7 4.7-4.3c2.6-2.4 5.1-4.3 5.5-4.3.4 0 9.9 8.4 21.1 18.6zm-169.5 98.8c17.1 8.1 31.4 22.3 42.3 42.1 3.9 7.1 3.3 4.1-1.3-6.8-4.9-11.5-9.1-18-17.5-27.1-8.2-8.8-5.3-7.2 4.9 2.7 19.4 18.8 30.2 48.5 27.1 74.6-3 24.4-14.7 44.4-29.5 50.1-12.3 4.7-41.5 3.7-54-1.9-3.6-1.7-12.9-10.3-18.4-17.1-2.9-3.6-2.6-1.9 1 5.1l3 6.1-4.3-2.6c-2.4-1.4-5.8-3.7-7.6-5.1-4-3.2-12-18.7-15.7-30.8-1.5-4.8-3-8.7-3.3-8.7-.3 0-.2 3.9.1 8.7.8 10.8 3.6 21.1 8.3 30.6l3.5 7.2-4.5-5c-3.7-4-4.4-4.5-3.6-2.3 1.6 4.7 6.1 13.2 9.5 17.9l3.3 4.6-7.7 4.1c-13.3 7-32.4 12.4-48.2 13.5l-5.6.3.3-6.8c.2-3.7.6-7.3.9-7.8.3-.6 3.4-2.9 6.7-5.1 5.3-3.7 7.4-4.4 17.1-6 6.1-1.1 11.3-2.1 11.5-2.4.3-.2-3.5-.2-8.4.1l-8.9.6 8.8-6.2c4.8-3.4 8.7-6.4 8.7-6.8 0-.4-4.2-3.6-9.3-7.2-5-3.5-15-10.6-22.1-15.8l-12.9-9.3L622 411c-9.8 6.5-11 7-12.9 5.8-1.9-1.1-2.1-2.2-2.1-9.4 0-4.5-.3-10.8-.6-14.1l-.7-6 20.9-10.7 20.8-10.7 5 3.5c2.8 2 7.7 5.6 10.9 8.1 5.1 4.1 5.7 4.9 5.7 8.3 0 2 .3 5.5.7 7.7l.8 4 .7-6c.4-3.3.8-6.9.8-8 .1-3.6 3.1-17.8 5.7-26.7l2.6-8.8 20.6-12c11.3-6.5 25.3-14.9 31.1-18.5 12.3-7.7 12.6-7.7 26.5-1.1zM670 358.5c-.5 2.7-.9 8.7-.9 13.3l-.1 8.3-8.7-7.8c-4.9-4.3-8.7-8-8.6-8.2.1-.5 18.7-11 18.9-10.7.1 0-.2 2.3-.6 5.1zm-120 58.2c0 2.6 0 2.6-2 .8-1.6-1.4-1.7-2-.8-2.7 2.2-1.3 2.8-.9 2.8 1.9zm94 7.9c6 4.1 11.1 7.8 11.4 8.2.2.4-7.5 6.1-17.2 12.8l-17.7 12.1-.6 6.9c-1.8 22.2-17.1 37.8-38.5 39.1-21.8 1.4-39.5-12.7-43.6-34.6-3.4-18.2 13.3-40.2 34.3-45 11-2.6 23.2-.6 30.8 4.9 2.6 1.9 4.9 2.9 6 2.5 1-.3 6.2-3.7 11.7-7.5 5.4-3.8 10.5-6.9 11.2-7 .7 0 6.2 3.4 12.2 7.6zm-104.7-2l3.8 2.5-4.6 5.2c-2.6 2.8-5.8 7.3-7.1 9.9-1.3 2.6-2.7 4.8-2.9 4.8-.8 0-13.4-7.9-17.3-10.9l-3.3-2.4 13.3-5.8c7.3-3.2 13.5-5.8 13.8-5.8.3-.1 2.2 1.1 4.3 2.5zm-41.9 25.8c6.1 4 14.6 9.3 18.8 11.7l7.8 4.4v5.5c.1 10.1 4.9 25.2 10.5 32.6l2.4 3.1-18.7 32.7-18.7 32.7-6.4 3.4c-3.5 1.9-7.1 4.1-8.1 5-.9.8-2.1 1.5-2.7 1.5-1 0-57.4-31.7-71.3-40-5.3-3.2-9.1-4.5-21-7-14-3.1-14.9-3.1-25.6-2.1-6 .6-12.2 1.1-13.6 1.1h-2.6l2.4-5.8c3.4-8.4 4.7-15.7 4.2-24.3l-.5-7.6 8.6-2.9c4.7-1.6 9.2-3 9.9-3.2.8-.3 1.2 1.3 1.2 5.2 0 3.1.4 5.6.9 5.6 1 0 2.6-4.5 3.6-10.1.6-3 1.3-3.8 4.3-4.9 7.8-2.7 38.4-16.1 52.7-23 12.8-6.2 47.2-20.6 49.9-20.9.5-.1 5.9 3.2 12 7.3zm193.7 52.2c2.3 7.6 7.3 22.5 11 33.1 3.8 10.5 6.9 19.6 6.9 20.1 0 .6-3.3 3.9-7.2 7.5-23.7 21.1-53.2 34.9-89.1 41.6-4.5.8-4.9.7-7.2-2.1-4.8-5.7-5.2-9.7-2.2-21.7 3.4-13.1 4.7-22.3 4.6-32.1l-.1-7.5-1.3 7.1c-3.8 20.9-11.7 33.5-37 58.7l-15.3 15.2-.6-6c-.4-3.3-.7-6.7-.8-7.5-.2-1.3 34.7-65.8 42-77.6 1.9-3.1 3.6-4.4 7.6-5.8 11-3.9 23.4-13.8 29.1-23.4l3-4.9 9.5-.7c11.5-.8 29.9-4 37.1-6.5 3-1 5.5-1.8 5.6-1.7.1.1 2.1 6.5 4.4 14.2zM277 595.1c40.4 36.9 75.9 69.4 78.8 72.1l5.2 4.9-4.1 4.7c-2.2 2.6-4.5 4.7-5 4.7s-37.8-33.7-83-75l-82-75 7.3-1.6c4-1 7.8-1.7 8.3-1.8.6-.1 34.1 30.1 74.5 67zm144.3-19.8c58.8 36.4 56.7 35 56.2 36.5-.8 2.2-1.7 10.2-1.2 10.2.3 0 1.2-2.4 2.1-5.3 2.3-7.8 6.7-13.1 13.8-16.6 21-10.5 43.9 8.7 37.4 31.3-2 6.7-7.6 13.4-13.9 16.5-5.3 2.6-1.9 2.8 3.8.2l4.1-1.8-1.9 20.6c-1 11.3-2 20.8-2.2 21-.8.7-21.4-5.2-30-8.6-11.6-4.6-24.5-11.2-24.6-12.7 0-.6-.2-1.8-.3-2.6-.2-.8-.7-4.9-1.1-9-.4-4.1-.8-8.6-1-10-.1-1.4-.6-5.7-.9-9.5-.4-3.9-.8-8.1-1.1-9.5-.2-1.4-.6-5.7-1-9.5-.4-4.6-1.1-7.3-2.1-8-.8-.6-18.8-12-40-25.3-37.1-23.5-38.6-24.4-42.5-23.8-2.2.3-7.2.8-11.2 1.1l-7.2.6-3.3-5.1c-1.8-2.9-3.2-5.4-3-5.6.6-.5 16-2.1 22.1-2.3 4.6-.1 6.4.9 49 27.2zm-130 141.3c73.8 67.5 136.1 124.5 138.5 126.8l4.2 4.1-2.7 6.8-2.7 6.7-2.5-2.3c-1.4-1.4-63.3-57.9-137.6-125.7-74.2-67.8-136.3-124.5-137.9-126.1l-3-2.8 4.5-5c2.4-2.7 4.5-4.9 4.7-5 .1-.1 60.6 55.1 134.5 122.5zm451.6-101.5c5.5 5.4 12.7 11.3 16.6 13.7l7 4.2-6-.7c-9.8-1.3-69.8-.9-82.5.5-26.5 2.9-52.8 7.7-72.1 13.1-5.7 1.6-10.5 2.8-10.6 2.7-.1-.1 1.7-3.9 4-8.4l4.3-8.1 15.9-.5c25.2-.7 44.9-4.3 67.5-12.1 10.6-3.8 28.2-12.1 36.6-17.5l4.9-3.1 2.4 3.3c1.4 1.8 6.8 7.6 12 12.9zm-315.3 19.5c2.3 2.9 2.5 3.7 1.3 4.5-2.2 1.4-3.2 1.1-6.8-2.3-3.3-2.9-3.3-3.1-1.6-4.4 2.9-2.1 4.2-1.7 7.1 2.2zm7.7 10.4c3.4 4.8 2.8 5-2.5.9-2.9-2.4-3.6-3.4-2.6-4 1.9-1.3 2.1-1.2 5.1 3.1zm506.5 53.2c-.6 6.8-4.5 17.9-6.5 18.6-2.8.9-.5-14.7 3.2-21.9 2.6-4.9 3.8-3.6 3.3 3.3zM929 712.9c0 4.3-1.1 9.1-2.1 9.1s-1.2-5.4-.3-9.9c.8-3.7 2.4-3.1 2.4.8zm-365.6 18.7c3.1 10.6 5.6 19.4 5.6 19.8 0 1.8-3.4.1-7.8-3.9-10.4-9.4-12.8-20.6-6.6-30.7 1.5-2.6 2.9-4.6 3-4.5.1.1 2.7 8.8 5.8 19.3zm-44.7 31.3c5.7 3.5 17.8 8.4 24.8 10l5 1.2 8.9 30.8c4.9 17 8.5 31.4 8.2 32-.4.6-1.2 1.1-1.8 1.1-1.8 0-19.8 8.8-19.8 9.7 0 .4 7 28.4 15.5 62.2 8.6 33.7 15.3 61.6 15 61.9-.8.9-16.9-2.6-27.3-5.9-20.6-6.5-38.2-17.7-49.1-31.1-6.8-8.2-13.5-22-16.2-33.3-1.8-7.1-2.2-12.1-2.3-24-.1-32.7 1.1-42.9 6.9-55 1.8-3.9 3.6-8.1 4-9.5 3.1-10.1 21.8-53 23.1-53 .2 0 2.5 1.3 5.1 2.9zm421.2 38c-1.5 9.7-5 17.8-7.1 16.5-2.2-1.4 1.3-17.6 4.9-23.3 2.4-3.7 3.4-.6 2.2 6.8zM492 799.7c0 4.2-8.7 19.3-11.1 19.3-1.5 0-1-2.2 2-8.7 4.7-9.9 9.1-15 9.1-10.6zm434.5 21.2c-.6 2.4-.7 2.4-1.7.7-1-1.8-.4-8.9 1-11 .9-1.5 1.5 7 .7 10.3zm-95.1 47.4l1.9 2.6-3.1 7.1c-1.8 3.8-3.2 7.1-3.2 7.3 0 .2 1.5.1 3.3-.1 2.8-.3 3.8.2 6.1 2.8 2.5 3 2.6 3.3.9 4.6-1.2.9-3.4 1.1-7 .7-4.9-.5-5.2-.5-4.6 1.6.5 2.1 1.5 2.4 8.3 2.5 1.5.1 4.5 1.8 7 3.9 3.7 3.1 4.2 4 3 4.8-.8.5-3.3.8-5.6.6l-4.1-.4 7.2 7.1c6.6 6.5 11.7 13.6 9.8 13.6-.5 0-3.5-.7-6.8-1.5-3.5-.8-6.4-1-6.9-.5s-2.7 4.4-5 8.6c-4.2 7.9-8.1 11.9-10.6 10.9-.8-.3-2.4-2.1-3.6-3.9l-2.1-3.3 3.1-.9c2.4-.7 3.7-2.2 6-6.6 1.5-3.2 2.6-6.4 2.2-7.3-1.1-3-4.2-1.6-7.5 3.4-3.6 5.7-8.1 9.8-12.8 11.8-6.1 2.5-6.6 1.6-2.2-4 6.1-7.6 7.3-11 5.4-14.7l-1.6-3h4c3.3 0 4-.4 4.5-2.4.3-1.4.3-3.1 0-4-.5-1.3-1.6-.8-6.1 2.4-3 2.1-7 4.4-8.8 5-3.2 1-3.3 1.4-4.8 9.7-2.2 12-2.9 12.5-10.4 6.9-8.1-5.9-8.4-6.6-2.9-6.6 2.5 0 4.6-.1 4.6-.3 0-.1.9-4.3 1.9-9.4 1.9-10.1 1.8-10.3-3.7-10.3-4 0-5 1-8.2 7.9-3.3 7-5.3 8.3-8.2 5.3l-2-2 3.5-10.3c4.9-14.3 8-27.4 8.1-33.7.1-5.2.2-5.3 2.6-4.7 5 1.3 13.4.5 16.2-1.5l2.6-1.9 3 3.4c3.7 4.2 5 9 2.9 11.3-1.3 1.6-5 17.3-4.2 18.1.8.8 8.5.2 10.4-.9 2.5-1.3 2.8-4 .6-4-1.8 0-6.5-4.3-6.5-6 0-.6 2.6-1 6.4-1 3.6 0 6.7-.4 7-.8.3-.5 1-5.1 1.6-10.3.7-5.2 1.3-10 1.5-10.6.6-1.9 4.6-.1 6.9 3zm7.8 1.9c1.8 1.5 4.8 5.9 4.8 7 0 1.6-6.6 4.8-9.8 4.8H831l2.5-5c1.4-2.7 2.5-5.6 2.5-6.5 0-1.8 1.1-1.9 3.2-.3zm-23.7.4c3.3 1.3 5.5 8.6 3.9 12.8-.9 2.3-4 .3-5.3-3.5-1.1-3.1-1.5-9.9-.7-9.9.2 0 1.2.3 2.1.6zm110.3 15.6c-.8 12.1-6.3 26.8-10.1 26.8-.6 0-.8-3.1-.5-8.3.8-12 6.3-26.7 10.1-26.7.6 0 .8 3.1.5 8.2zM749 891.8c0 1.9-.3 1.5-2.4-2.8l-1.7-3.5 2.1 2.4c1.1 1.3 2 3 2 3.9zm158.8 18.1c-.5 7.9-1.2 10.6-2.9 9.6-1.2-.8-1.1-10.1.2-14.8 1.7-6.2 3.2-3.4 2.7 5.2zM778 972.5c32.3 3 59.4 7.2 88.2 13.7 15.5 3.5 15.5 3.5 14.2 13.5-.5 4.5-1.1 5.6-3 6.3-6.9 2.7-84.8 16.8-118.7 21.6l-11.8 1.6-7.7-2.7c-22-7.8-35.7-17.8-42.3-31.1-3.3-6.6-4.7-15.4-3.5-21.9l.7-3.8 33.7.6c18.5.4 41.1 1.3 50.2 2.2z"/><path d="M738 341.5c-7.9 1.5-24.8 9.1-30.5 13.9-2.4 2-1.5 1.8 5-1.4 10.7-5.4 21.7-8.9 30.7-9.9 8.7-1 22.1.1 29.3 2.3 6.5 2 7 1.2.9-1.5-11-4.7-22-5.8-35.4-3.4zM800.2 384.5c-5.4 3.9-14.1 6.6-23.2 7.4l-8.5.7 6.1.8c11.1 1.4 24-2.8 28.2-9.2 1.8-2.7 1.6-2.7-2.6.3zM707.7 416.8c7.1 6.5 14.4 11.2 23.5 15.1 5.7 2.4 7.4 2.6 19.3 2.6 11.7-.1 13.7-.3 19.9-2.8 6.7-2.6 22.8-12.6 24.2-14.9.4-.7-.6-.2-2.2.9-11.3 8.1-27.5 13.3-40.9 13.3-15.7 0-29.3-4.8-43.2-15.1l-6.8-4.9 6.2 5.8zM574.4 452.9c-17.1 7.8-11.4 34.1 7.5 34.3 6.8 0 12.8-3.4 16-9 8.6-15.7-7.2-32.7-23.5-25.3zm15.9 9.1c3.9 4.4 3.8 11-.2 15.1-6 5.9-17.1 2.6-18.7-5.7-2.1-11 11.4-17.8 18.9-9.4zM418.2 477c-8.4 9.1-24.1 21.7-33.8 27.2-6.4 3.6-7.4 4.8-4 4.8 1.4 0 2.6.2 2.6.4 0 .3-.7 3.7-1.5 7.7-.9 4-1.4 7.4-1.2 7.5.2.2 2.4-3.4 4.8-8.1 3-5.7 5-8.5 6.2-8.5 2 0 2.1.4.6 3.1-2.4 4.6 0 3.8 3-1 3.6-5.5 4.6-6.3 3.8-2.9-.5 1.8 0 1.5 2.1-1.2 1.5-1.9 4.2-4.8 6-6.5 4.7-4.2 11.9-13.9 15.4-20.8 2.8-5.7 5-10.7 4.5-10.7-.1 0-3.9 4.1-8.5 9zM461.1 513.4c-1.4 1.4-2.3 2.7-2 2.9.4.3 34-1.1 37.4-1.6 1.1-.1-5-.8-13.5-1.5s-16.4-1.5-17.5-1.8c-1.4-.3-2.8.3-4.4 2zM480 529.6c-11.8.6-23.6 1.3-26.2 1.3-4.2.1-4.8.4-6.7 3.7-1.2 2-2 3.8-1.9 4 .4.3 57.6-9.3 59.3-10 1.3-.6 1.4-.6-24.5 1zM497.9 614.3c-5.9 3.9-6.5 12.4-1.2 17.3 2 1.8 3.7 2.4 7.2 2.4 4.9-.1 6.7-1 9.4-5 4.6-6.7-1.2-17-9.6-17-1.3 0-3.9 1-5.8 2.3zm9.5 4.8c3 2.3 3.3 4.5 1 7.7-2.8 4.1-10.4 1.8-10.4-3.2 0-2.6.9-3.9 3.5-5.4 2.7-1.5 2.8-1.5 5.9.9zM789.3 876.8c-.6.4-1.4 2.8-1.8 5.4l-.7 4.8h5c4.7 0 5-.1 5.6-3.1 1.3-6.9.9-7.9-3.1-7.9-2.1 0-4.3.4-5 .8zM786.7 893.8c-1.4.3-1.7 1.2-1.5 3.5.3 3 .5 3.2 4.8 3.2 4.5 0 4.5 0 4.8-3.7.3-3.6.2-3.7-3-3.5-1.9.1-4.2.3-5.1.5zM801.6 906.7c-.4 2.1-.9 4.6-1.2 5.5-.9 3.1 1.4 2 4-1.9 2.4-3.4 2.4-3.8.9-5.5-2.3-2.6-3-2.3-3.7 1.9zM820.3 904.8c-1.8 1.1 4.2 8.1 8.5 9.9 1.9.8 3.6 1.3 3.7 1.1.2-.2-1.2-2.9-3.2-6.1-3.4-5.7-5.8-6.9-9-4.9z"/></svg>